<svg xmlns="http://www.w3.org/2000/svg" width="256" height="256"><path fill-opacity=".016" d="M0 128.004v128.004l128.25-.254 128.25-.254.254-127.75L257.008 0H0v128.004m.485.496c0 70.4.119 99.053.265 63.672.146-35.38.146-92.98 0-128C.604 29.153.485 58.1.485 128.5" fill="#1976D2" fill-rule="evenodd"/><path fill-opacity=".311" d="M250.131 46.713c-3.391 1.612-8.395 5.58-13.585 10.77-5.979 5.979-10.033 9.075-14.882 11.366-3.665 1.732-6.664 3.787-6.664 4.568 0 .781-.273 2.131-.607 3.001-.433 1.129-.014 1.582 1.465 1.582 1.139 0 2.586.962 3.216 2.137 1.068 1.997.955 2.097-1.715 1.527-28.026-5.982-46.265-7.768-85.379-8.358-60.107-.907-96.037 3.112-117.412 13.135C5.562 90.664 2 94.138 2 98.695c0 1.883.368 3.195.818 2.917.45-.278 1.364 1.003 2.031 2.846 1.466 4.056 3.487 5.449 14.537 10.023 11.122 4.604 27.674 8.811 45.114 11.467 7.7 1.173 17.825 2.776 22.5 3.564 4.675.787 16.375 1.941 26 2.566 9.625.624 17.725 1.365 18 1.645.585.597-23.499-.394-43.268-1.779-32.853-2.303-62.665-8.706-76.475-16.424-2.48-1.386-4.668-2.52-4.862-2.52-.193 0 .16 1.125.787 2.5.626 1.375 1.543 2.5 2.038 2.5.494 0 .623.445.287.989-.35.566.051.734.941.393 1.138-.437 1.552.047 1.552 1.811 0 1.324.416 2.834.924 3.357.508.522 1.841 3.382 2.962 6.354 3.621 9.597 14.28 27.06 19.241 31.52C45.064 171.358 60.16 176.712 89 181.53c12.04 2.012 20.543 2.721 38.092 3.175 52.003 1.347 88.874-6.159 104.408-21.257 5.199-5.052 7.768-9.831 10.408-19.359 1.085-3.914 4.699-12.228 8.032-18.477 6.059-11.359 6.06-11.361 6.06-19.938v-8.578l-4.75-3.21c-2.613-1.766-4.949-3.373-5.191-3.573-.243-.199 1.905-2.739 4.773-5.643l5.216-5.281-.274-17.614-.274-17.614-5.369 2.552m-84.862 28.98c.973.254 2.323.237 3-.037.677-.274-.119-.481-1.769-.461-1.65.02-2.204.244-1.231.498m59.444.324c1.217.49 2.788 1.812 3.49 2.937 1.775 2.842 2.993 2.57 1.654-.369-.606-1.329-2.058-2.672-3.229-2.987-3.205-.86-4.428-.592-1.915.419m-50.9.666c.721.289 1.584.253 1.916-.079.332-.332-.258-.568-1.312-.525-1.165.048-1.402.285-.604.604m-22.126 22.324c-5.47.961-9.687 3.35-9.687 5.49 0 3.556 16.232 7.465 32 7.705 10.444.16 13.228-.603 12.808-3.507-.812-5.616-23.176-11.786-35.121-9.688m55.311 13.994c-1.047.648-.712 1.033 1.351 1.55 3.345.84 4.524-.014 1.933-1.4-1.096-.587-2.475-.649-3.284-.15M240 211c0 1.833.667 2 8 2s8-.167 8-2-.667-2-8-2-8 .167-8 2" fill="#1976D2" fill-rule="evenodd"/><path fill-opacity=".589" d="M250.023 47.218c-2.462 1.218-8.653 6.194-13.758 11.057-5.961 5.679-11.157 9.674-14.523 11.166-3.954 1.753-5.528 3.089-6.405 5.441-1.312 3.517-1.366 3.46 2.05 2.161 2.04-.775 2.411-.681 1.958.5-.347.904.051 1.457 1.048 1.457 1.891 0 2.115 2.092.407 3.8-.933.933-.729 1.2.92 1.2 2.808 0 18.761 5.629 23.628 8.337 3.287 1.83 6.652 5.986 6.652 8.217 0 .359-1.654-.799-3.675-2.573-4.756-4.176-15.024-9.066-25.231-12.015-4.515-1.305-7.586-2.662-6.935-3.064.642-.397-.593-.674-2.746-.615-2.152.059-10.331-.879-18.174-2.084-7.844-1.206-25.394-3.147-39-4.313-21.257-1.822-29.313-2.043-57.239-1.564-34.242.586-48.818 2.032-66.819 6.628C11.984 86.111 1.542 94.65 5.057 103.137c1.532 3.7 10.603 9.925 18.08 12.409 4.881 1.621 5.069 1.609 7.251-.441 2.639-2.479 4.886-2.685 6.612-.605.955 1.15.972 1.829.074 2.911-1.507 1.816-1.064 2.048 8.455 4.419 22.337 5.564 59.431 9.098 96.954 9.237 17.395.064 17.862.119 13.517 1.567-5.314 1.773-41.004 2.378-60.5 1.026-6.6-.458-11.767-.598-11.482-.311C85.292 134.63 119.12 137 136.127 137c26.215 0 67.154-3.579 86.373-7.552 3.85-.795 7.073-1.447 7.163-1.447.09-.001-3.66 4.027-8.333 8.95-14.404 15.176-32.076 27.251-48.83 33.364-15.194 5.545-38.881 8.265-64.091 7.359-30.258-1.086-49.421-4.412-64.073-11.121-7.431-3.401-5.885-1.585 1.877 2.207 17.865 8.727 45.789 14.022 78.787 14.94 38.409 1.068 70.118-3.601 90.758-13.366 8.903-4.211 14.663-11.055 24.645-29.282 4.897-8.941 9.464-17.887 10.149-19.881.685-1.994 2.192-4.253 3.347-5.02 1.849-1.228 2.101-2.373 2.101-9.567v-8.173l-5.25-3.909c-2.887-2.15-5.449-4.054-5.693-4.231-.243-.178 2.119-2.912 5.25-6.076L256 78.442V61.721c0-9.197-.338-16.721-.75-16.72-.412 0-2.765.998-5.227 2.217M224 76.769c1.925.953 3.944 2.745 4.487 3.982.543 1.237 1.781 2.249 2.75 2.249 2.206 0 2.198-.148-.22-4.246-1.718-2.913-2.551-3.385-6.25-3.54l-4.267-.178 3.5 1.733m-29.187 1.914c.721.289 1.584.253 1.916-.079.332-.332-.258-.568-1.312-.525-1.165.048-1.402.285-.604.604m5.937.979c.688.278 1.813.278 2.5 0 .688-.277.125-.504-1.25-.504s-1.937.227-1.25.504m5.063 1.021c.721.289 1.584.253 1.916-.079.332-.332-.258-.568-1.312-.525-1.165.048-1.402.285-.604.604m5 1c.721.289 1.584.253 1.916-.079.332-.332-.258-.568-1.312-.525-1.165.048-1.402.285-.604.604m-64.781 14.918c-9.124 2.452-14.077 6.232-12.739 9.721.337.877 2.996 2.276 5.91 3.108 6.752 1.93 34.706 6.131 50.291 7.558 6.597.604 14.346 1.782 17.22 2.617 6.837 1.988 12.645 1.551 13.126-.986.983-5.181-5.609-9.905-16.178-11.593-3.713-.593-11.145-2.85-16.515-5.015-5.37-2.165-12.419-4.628-15.665-5.474-7.312-1.904-18.227-1.877-25.45.064m-66.804 3.438c-3.204 1.287-3.968 3.937-1.64 5.693 3.217 2.427 17.412.229 17.412-2.696 0-.491-.707-1.6-1.571-2.465-1.753-1.752-10.36-2.074-14.201-.532M216.5 124.576c-6.05 1.322-13.846 2.698-17.323 3.059-3.997.415-5.837.965-5 1.495.871.553.213.845-1.927.855-3.66.017-4.471 1.476-1 1.799 7.65.713 35.125-4.171 34.463-6.126-.215-.637.773-1.684 2.198-2.327 3.894-1.758.767-1.417-11.411 1.245M248 211c0 1.667.667 2 4 2s4-.333 4-2-.667-2-4-2-4 .333-4 2" fill="#1976D2" fill-rule="evenodd"/><path fill-opacity=".873" d="M250 47.758c-4.372 2.138-20.173 17.153-19.388 18.423.318.515 1.868.653 3.445.306 1.577-.346 3.652-.19 4.612.348 1.462.818 1.102 1.148-2.212 2.03-2.176.58-5.982 1.368-8.457 1.753-4.447.69-12.507 4.208-11.637 5.078.247.248 2.119-.011 4.16-.575 2.041-.563 5.019-.763 6.618-.443 4.752.951 9.385 9.322 5.159 9.322-2.55 0-.526 1.485 5.519 4.049l5.319 2.257 6.431-6.374L256 77.558V61.779c0-17.284.116-17.013-6-14.021M90.216 74.745c-5.75.234-8.073.677-7.597 1.448.496.802-2.488.959-10.716.566-7.231-.345-9.939-.239-7.403.29 3.202.668 2.642.752-2.805.425-9.794-.589-30.055 3.276-40.77 7.776-5.926 2.489-13.609 8.574-14.968 11.853-2.479 5.987 2.326 11.797 13.519 16.346l5.79 2.353 2.28-2.651c2.099-2.439 2.893-2.651 9.948-2.651 9.098 0 11.021 1.477 9.977 7.664l-.618 3.664 5.324 1.1c23.024 4.759 62.119 7.731 65.44 4.975 2.656-2.204 21.147-1.943 24.642.347 2.153 1.41 4.86 1.745 13.956 1.723 12.241-.029 49.498-3.334 50.604-4.489.375-.391-1.695-.39-4.599.001-3.321.447-5.756.315-6.566-.357-.708-.588-4.333-1.333-8.054-1.656-10.368-.901-11.931-1.166-16.958-2.872-2.568-.872-7.701-2.033-11.406-2.58-3.705-.548-11.309-1.667-16.899-2.487-10.704-1.572-22.623-6.23-23.802-9.303-.828-2.158.531-3.308 10.965-9.276 4.95-2.831 10.489-6.272 12.31-7.647 4.143-3.13 8.108-10.789 6.446-12.451-2.118-2.118-31.577-3.189-58.04-2.111m-16.952.973c1.52.229 3.77.223 5-.014 1.23-.237-.014-.425-2.764-.418-2.75.008-3.756.202-2.236.432m147.986 2.674c.963.731 1.75 2.018 1.75 2.861 0 1.676 2.638 3.089 4.09 2.191 1.807-1.116.85-3.424-2.04-4.918-3.697-1.912-6.261-2.002-3.8-.134M170.71 81c.288 1.1.947 2 1.466 2 .518 0 .708.379.422.842-.913 1.476 5.66 6.879 13.402 11.018 4.125 2.205 12.217 5.604 17.983 7.553 14.408 4.871 18.742 8.446 19.195 15.837.173 2.812.667 3.75 1.975 3.75 3.112 0 18.219-5.137 23.096-7.854 4.359-2.429 4.749-2.956 4.75-6.422.002-8.96-14.932-17.798-39.999-23.672C200.888 81.214 185.154 79 177.1 79c-6.42 0-6.876.142-6.39 2M75.285 98.448c-6.009 2.797-8.06 6.781-4.741 9.208 3.819 2.792 27.32.997 36.749-2.807l2.794-1.128-2.17-2.309c-5.447-5.799-23.101-7.402-32.632-2.964M197.5 174.139c-7.886 1.848-38.889 6.864-43.399 7.021-3.736.13-3.982.237-1.308.567 7.864.971 43.81-4.735 49.207-7.811 1.846-1.052.695-.995-4.5.223m-109.75 5.523c.688.278 1.813.278 2.5 0 .688-.277.125-.504-1.25-.504s-1.937.227-1.25.504m8.25 1.335c4.624.878 12.66 1.3 11.917.625-.23-.209-4.017-.627-8.417-.929-6.014-.414-6.883-.339-3.5.304m17.25 1.731c2.063.216 5.438.216 7.5 0 2.063-.215.375-.392-3.75-.392s-5.812.177-3.75.392m21 .007c2.613.206 6.887.206 9.5 0 2.613-.206.475-.375-4.75-.375s-7.363.169-4.75.375" fill="#1976D2" fill-rule="evenodd"/></svg>